IKResults
version=1
nRows=16
nColumns=40
inDegrees=yes

Units are S.I. units (second, meters, Newtons, ...)
Angles are in degrees.

endheader
time	pelvis_tilt	pelvis_list	pelvis_rotation	pelvis_tx	pelvis_ty	pelvis_tz	hip_flexion_r	hip_adduction_r	hip_rotation_r	knee_angle_r	knee_angle_r_beta	ankle_angle_r	subtalar_angle_r	mtp_angle_r	hip_flexion_l	hip_adduction_l	hip_rotation_l	knee_angle_l	knee_angle_l_beta	ankle_angle_l	subtalar_angle_l	mtp_angle_l	lumbar_extension	lumbar_bending	lumbar_rotation	arm_flex_r	arm_add_r	arm_rot_r	elbow_flex_r	pro_sup_r	wrist_flex_r	wrist_dev_r	arm_flex_l	arm_add_l	arm_rot_l	elbow_flex_l	pro_sup_l	wrist_flex_l	wrist_dev_l
      3.54000000	     15.93962522	     -5.40875666	      2.95741350	      0.67107540	      0.94017407	      1.38934882	      3.01653879	      3.27115021	    -22.84448229	    -12.58368203	     -0.21962668	      2.27302204	      7.99153183	    -12.18026146	    -27.44608376	      3.80509241	     18.30578344	    -11.97505396	     -0.20900412	     13.68647301	     -5.89726511	     -6.65449140	    -24.05660095	      6.14148639	     -3.26789425	     -2.92378976	    -10.49299664	      1.59966058	     23.52743059	     89.95437384	      0.00000000	      0.00000000	      8.51748548	      7.33226595	     -2.43382381	     35.19722499	     89.95437384	      0.00000000	      0.00000000
      3.55000000	     15.86834948	     -5.38464315	      3.35501970	      0.67779407	      0.93949356	      1.38949021	      2.89068277	      3.30234839	    -23.10960725	    -12.38809968	     -0.21621313	      2.08293200	      8.23020901	    -12.20120237	    -27.68060565	      4.05350003	     18.07623930	    -12.15751280	     -0.21218863	     13.64072675	     -5.80291890	     -6.75023320	    -23.89922721	      6.31387192	     -3.53682653	     -3.06962517	    -10.43587343	      1.23705368	     23.59790495	     89.95437384	      0.00000000	      0.00000000	      8.34756305	      7.26502766	     -2.69586965	     35.37739300	     89.95437384	      0.00000000	      0.00000000
      3.56000000	     15.67681585	     -5.32653246	      3.56421557	      0.68456049	      0.93867903	      1.38978335	      2.96083264	      3.25663181	    -22.97478463	    -12.41101328	     -0.21661305	      1.94016139	      8.41723389	    -12.17966935	    -27.80077845	      4.16308446	     17.89333992	    -12.36336858	     -0.21578149	     13.67563837	     -5.77385140	     -6.78658890	    -23.60328021	      6.40540901	     -3.67234601	     -3.15259548	    -10.40154945	      1.14091594	     23.44995841	     89.95437384	      0.00000000	      0.00000000	      8.21926971	      7.15714627	     -2.92119294	     35.35920031	     89.95437384	      0.00000000	      0.00000000
      3.57000000	     15.42249207	     -5.19899725	      3.72436894	      0.69144994	      0.93776022	      1.39011044	      3.13302577	      3.10690693	    -22.74014161	    -12.68313734	     -0.22136251	      1.78364733	      8.29170714	    -12.02082457	    -27.82067757	      4.20039419	     17.80352981	    -12.66508276	     -0.22104739	     13.58668364	     -5.64149369	     -6.71606119	    -23.23560566	      6.40804930	     -3.79300775	     -3.34637831	    -10.42910073	      1.10124096	     23.52123421	     89.95437384	      0.00000000	      0.00000000	      8.07530664	      7.03339651	     -3.01515122	     35.39065378	     89.95437384	      0.00000000	      0.00000000
      3.58000000	     15.23144914	     -5.15739394	      4.00850424	      0.69852578	      0.93694811	      1.39047651	      3.11547106	      3.09641384	    -22.79742826	    -12.83322113	     -0.22398196	      1.06194587	      8.33044581	    -11.90407327	    -27.96959719	      4.37841010	     17.60731602	    -12.80979166	     -0.22357304	     13.66993809	     -5.64030421	     -6.71885738	    -22.89605911	      6.52496321	     -3.94968010	     -3.46462871	    -10.40297953	      0.99628388	     23.43033393	     89.95437384	      0.00000000	      0.00000000	      7.96107256	      6.92666365	     -3.28262694	     35.29784031	     89.95437384	      0.00000000	      0.00000000
      3.59000000	     15.11030060	     -5.13477181	      4.37405602	      0.70574744	      0.93626593	      1.39083248	      3.12520733	      3.02837693	    -23.12631817	    -13.35512538	     -0.23309091	     -0.68916646	      8.11068402	    -11.63955969	    -28.12010081	      4.63762288	     17.25459095	    -13.11908259	     -0.22897119	     13.64017386	     -5.56189901	     -6.70772476	    -22.62690741	      6.69724928	     -4.11380308	     -3.65093082	    -10.33276134	      0.78855685	     23.36139838	     89.95437384	      0.00000000	      0.00000000	      7.81566959	      6.83947807	     -3.50077773	     35.35156163	     89.95437384	      0.00000000	      0.00000000
      3.60000000	     14.96048237	     -5.06483266	      4.72509148	      0.71300718	      0.93563248	      1.39116116	      3.17889136	      2.92521655	    -22.94910649	    -14.03722544	     -0.24499580	     -2.02809206	      7.91950998	    -11.37771997	    -28.20786937	      4.84772949	     16.99554925	    -13.49053968	     -0.23545434	     13.46266075	     -5.40113689	     -6.63990922	    -22.32819489	      6.81546349	     -4.34207887	     -3.83089143	    -10.30991105	      0.67906362	     23.40303251	     89.95437384	      0.00000000	      0.00000000	      7.66745193	      6.75402322	     -3.63737268	     35.34481733	     89.95437384	      0.00000000	      0.00000000
      3.61000000	     14.86970848	     -5.23070408	      5.02561874	      0.72028696	      0.93533030	      1.39188861	      3.16635209	      3.11276032	    -22.91421128	    -14.59470458	     -0.25472565	     -3.20425355	      7.86342954	    -11.21235332	    -28.39021567	      5.26549466	     16.57478469	    -13.78565653	     -0.24060510	     13.31457802	     -5.28414582	     -6.60228541	    -22.10579590	      7.12800447	     -4.32871201	     -3.94343985	    -10.26629486	      0.56573453	     23.21136327	     89.95437384	      0.00000000	      0.00000000	      7.60905078	      6.63882258	     -3.73578780	     35.27123613	     89.95437384	      0.00000000	      0.00000000
      3.62000000	     14.58240067	     -5.11138813	      5.10064473	      0.72751249	      0.93499481	      1.39270298	      3.34692388	      2.99111089	    -22.57819862	    -15.04752092	     -0.26262878	     -3.28395515	      7.61410335	    -11.00910319	    -28.27966839	      5.30240448	     16.28875440	    -14.30615029	     -0.24968943	     13.00698452	     -5.09562429	     -6.48402660	    -21.74809586	      7.07608992	     -4.27235783	     -4.18495313	    -10.26773401	      0.55749889	     23.37623515	     89.95437384	      0.00000000	      0.00000000	      7.39888114	      6.55857420	     -3.71119815	     35.40367243	     89.95437384	      0.00000000	      0.00000000
      3.63000000	     14.72471713	     -5.63465963	      5.53099420	      0.73505991	      0.93544414	      1.39339621	      3.15856027	      3.56458461	    -22.95667902	    -15.76486220	     -0.27514875	     -3.04547549	      7.13797822	    -11.02152276	    -28.71580747	      6.15053593	     15.99750125	    -14.53198203	     -0.25363093	     12.73153803	     -4.75291526	     -6.42982291	    -21.72411130	      7.83103645	     -4.23445283	     -4.10397511	    -10.24850356	      0.48419154	     22.90105419	     89.95437384	      0.00000000	      0.00000000	      7.43103476	      6.30761031	     -3.65731660	     35.01115695	     89.95437384	      0.00000000	      0.00000000
      3.64000000	     14.69261560	     -6.05017322	      6.11648002	      0.74237894	      0.93592017	      1.39412648	      2.85350548	      4.24418651	    -22.79027566	    -15.78393007	     -0.27548155	     -3.15586547	      5.71663731	    -11.17453898	    -28.70761778	      6.97713825	     15.14797525	    -15.20690623	     -0.26541058	     12.51653939	     -3.84990406	     -6.46852637	    -21.55130276	      8.48011664	     -4.46853022	     -4.09997884	    -10.14260089	      0.19484997	     22.71068978	     89.95437384	      0.00000000	      0.00000000	      7.35605214	      6.12472680	     -3.34193039	     34.79072372	     89.95437384	      0.00000000	      0.00000000
      3.65000000	     14.56337783	     -6.24650927	      6.25216108	      0.74993568	      0.93636775	      1.39501686	      2.83979851	      4.56409987	    -22.28072045	    -16.40985340	     -0.28640597	     -2.68009480	      5.38092799	    -11.09123859	    -28.77487985	      7.33682134	     14.77673798	    -15.64482698	     -0.27305374	     12.00264257	     -3.50959652	     -6.35162815	    -21.30994591	      8.78819570	     -4.33345092	     -4.13819105	    -10.17166352	      0.29896081	     22.50298001	     89.95437384	      0.00000000	      0.00000000	      7.27857363	      5.98268987	     -3.33766656	     34.54877160	     89.95437384	      0.00000000	      0.00000000
      3.66000000	     14.43545505	     -6.47978780	      6.29967384	      0.75705666	      0.93708644	      1.39632452	      2.80714535	      4.99305086	    -21.63672996	    -16.90092159	     -0.29497673	     -2.16073713	      5.00500768	    -10.98091255	    -28.75566307	      7.70665418	     14.30722965	    -16.20051124	     -0.28275226	     11.41374819	     -2.97728059	     -6.20659917	    -21.15146525	      9.07486545	     -4.10542113	     -4.05901874	    -10.17853375	      0.47637852	     22.26499883	     89.95437384	      0.00000000	      0.00000000	      7.26825319	      5.83696717	     -3.19487032	     34.24405988	     89.95437384	      0.00000000	      0.00000000
      3.67000000	     14.33411859	     -6.81823944	      6.63074181	      0.76464682	      0.93811936	      1.39738809	      2.07145816	      6.04121680	    -19.74997226	    -15.89312238	     -0.27738731	     -2.25670604	      1.88459754	    -10.34394693	    -28.79708041	      8.16110547	     12.93714342	    -16.61920884	     -0.29005991	     11.18235618	     -0.51169981	     -5.99048237	    -20.91618720	      9.55525382	     -4.22379649	     -3.99334544	    -10.17745425	      0.81662871	     22.04439818	     89.95437384	      0.00000000	      0.00000000	      7.16200398	      5.64367435	     -2.64124592	     33.90337741	     89.95437384	      0.00000000	      0.00000000
      3.68000000	     14.17692933	     -6.88879115	      6.62041950	      0.77236550	      0.93890726	      1.39868105	      1.92928737	      6.23762816	    -19.54084081	    -16.27933409	     -0.28412798	     -1.75121404	      1.54053183	    -10.19849180	    -28.77410327	      8.34394156	     12.57150696	    -17.16700072	     -0.29962069	     10.44189564	     -0.22052043	     -5.85870600	    -20.64785128	      9.65170304	     -4.01876979	     -3.99185723	    -10.15013333	      0.93895288	     21.76371897	     89.95437384	      0.00000000	      0.00000000	      7.08964875	      5.59337646	     -2.69877411	     33.55063157	     89.95437384	      0.00000000	      0.00000000
      3.69000000	     13.85677388	     -6.77009773	      6.49700486	      0.77998927	      0.93951745	      1.40011377	      1.94321163	      6.19018395	    -19.27572591	    -16.66213630	     -0.29080914	     -1.70995880	      1.44270344	    -10.00660273	    -28.57818288	      8.29281368	     12.24615639	    -17.73011339	     -0.30944886	     10.04711626	     -0.12545587	     -5.74020860	    -20.26327827	      9.49731712	     -3.93834738	     -4.11630598	    -10.12052674	      0.96727285	     21.96580523	     89.95437384	      0.00000000	      0.00000000	      6.82488100	      5.66561280	     -2.66489069	     33.55020031	     89.95437384	      0.00000000	      0.00000000
